<?xml version="1.0" standalone="no"?>
<!DOCTYPE svg PUBLIC "-//W3C//DTD SVG 20010904//EN"
 "http://www.w3.org/TR/2001/REC-SVG-20010904/DTD/svg10.dtd">
<svg version="1.0" xmlns="http://www.w3.org/2000/svg"
 width="286.000000pt" height="286.000000pt" viewBox="0 0 286.000000 286.000000"
 preserveAspectRatio="xMidYMid meet">
<metadata>
Created by potrace 1.14, written by Peter Selinger 2001-2017
</metadata>
<g transform="translate(0.000000,286.000000) scale(0.100000,-0.100000)"
fill="#000000" stroke="none">
<path d="M1417 2385 c-4 -8 -3 -16 1 -19 4 -3 9 4 9 15 2 23 -3 25 -10 4z"/>
<path d="M1314 2378 c-4 -7 -4 -10 1 -6 4 4 15 2 24 -5 14 -11 14 -10 2 6 -16
20 -18 21 -27 5z"/>
<path d="M1379 2373 c-13 -16 -12 -17 4 -4 9 7 17 15 17 17 0 8 -8 3 -21 -13z"/>
<path d="M1503 2379 c34 -20 5 -28 -105 -28 -61 0 -113 -3 -116 -6 -3 -2 -12
1 -20 8 -13 9 -14 9 -8 0 5 -9 1 -13 -11 -14 -27 -1 -66 -8 -83 -16 -20 -8
-41 -13 -67 -16 -11 -1 -19 -6 -15 -11 3 -5 -2 -7 -11 -3 -9 3 -17 2 -19 -2
-6 -13 -111 -61 -121 -54 -6 3 -7 1 -3 -6 4 -6 0 -14 -11 -18 -10 -3 -22 -13
-26 -20 -7 -12 -12 -12 -25 -1 -9 7 -14 9 -10 4 10 -11 -9 -46 -25 -46 -7 0
-18 -9 -25 -20 -7 -12 -18 -18 -24 -14 -6 4 -8 3 -4 -4 3 -6 -4 -19 -17 -29
-12 -10 -45 -51 -73 -90 -28 -40 -54 -69 -58 -66 -4 4 -4 0 0 -10 3 -10 1 -17
-6 -17 -6 0 -8 -4 -5 -10 3 -5 1 -10 -4 -10 -6 0 -10 -3 -9 -7 3 -11 -30 -93
-38 -93 -3 0 -2 6 2 13 6 9 5 9 -8 0 -8 -7 -19 -9 -23 -5 -5 4 -5 1 -1 -6 4
-7 11 -10 16 -7 5 3 11 1 15 -5 3 -5 1 -10 -5 -10 -6 0 -8 -5 -5 -10 4 -6 2
-16 -3 -23 -6 -7 -10 -15 -10 -20 0 -4 -6 -39 -12 -77 -8 -45 -16 -68 -22 -63
-7 4 -8 1 -2 -8 5 -8 10 -32 11 -53 2 -37 2 -38 -13 -20 -15 17 -15 17 0 -8
11 -18 12 -28 4 -30 -6 -2 -12 -12 -14 -21 -1 -9 2 -15 7 -11 5 3 7 10 4 15
-4 5 -2 9 4 9 6 0 9 -13 8 -30 -2 -31 -12 -39 -20 -17 -4 9 -6 9 -6 -1 -1 -7
6 -15 14 -18 18 -7 20 -34 3 -34 -6 0 -3 -7 8 -16 19 -15 19 -16 0 -9 -19 6
-19 5 -2 -14 10 -11 16 -26 13 -33 -2 -7 0 -21 5 -31 5 -9 5 -23 1 -30 -11
-18 -13 -38 -2 -31 5 3 7 10 4 15 -4 5 -1 9 5 9 7 0 10 -6 7 -14 -3 -7 1 -26
9 -40 7 -15 13 -30 12 -34 -1 -4 5 -21 15 -38 9 -17 13 -34 10 -38 -4 -3 -1
-6 7 -6 10 0 10 -4 -1 -17 -12 -15 -12 -16 4 -10 15 6 17 3 12 -13 -4 -11 -3
-20 2 -19 20 3 25 -2 13 -16 -7 -8 -9 -15 -4 -15 5 0 2 -5 -6 -10 -12 -7 -10
-9 7 -7 17 1 19 4 11 14 -7 9 -7 13 1 13 12 0 14 -11 12 -47 -1 -11 3 -24 9
-28 9 -5 10 -1 5 15 -5 15 -3 21 5 18 6 -2 12 -8 12 -13 0 -6 18 -29 39 -53
23 -24 37 -47 33 -54 -5 -8 -2 -9 10 -5 9 4 15 3 12 -2 -3 -5 1 -12 10 -15 9
-3 12 -11 8 -18 -5 -7 -2 -9 8 -6 8 4 22 -1 30 -10 29 -33 66 -60 73 -54 4 4
5 0 3 -8 -2 -8 3 -14 10 -12 6 1 11 -1 11 -5 -3 -18 2 -27 9 -17 5 9 10 8 19
-1 10 -10 9 -14 -3 -19 -10 -4 -13 -2 -8 7 4 6 3 8 -1 4 -14 -13 -14 -34 1
-34 7 0 11 4 8 9 -3 4 10 8 29 8 22 0 37 -6 41 -15 3 -8 12 -12 21 -9 8 3 15
2 15 -4 0 -13 -27 -9 -42 6 -16 16 -25 15 -32 -4 -5 -14 -4 -15 7 -5 11 9 17
7 28 -6 12 -15 12 -16 -3 -10 -10 3 -20 3 -22 -2 -7 -11 27 -10 42 2 6 5 12 6
12 2 0 -4 8 -1 17 6 14 12 15 12 9 0 -7 -10 -3 -12 13 -6 12 4 21 2 21 -4 0
-6 3 -10 8 -9 4 2 8 0 10 -4 2 -7 -2 -10 -10 -7 -26 7 -48 7 -48 -2 0 -5 4 -8
9 -5 5 3 14 -1 21 -9 7 -8 16 -12 21 -10 4 3 12 -3 18 -12 6 -10 11 -13 11 -7
0 5 -5 15 -12 22 -9 9 -9 12 -1 12 7 0 19 -10 29 -22 11 -16 15 -17 11 -5 -4
9 -2 17 4 17 6 0 8 4 5 8 -3 5 1 9 9 9 11 0 12 -4 4 -14 -14 -16 3 -17 19 -1
7 7 12 8 12 2 0 -6 -5 -15 -12 -22 -9 -9 -9 -15 1 -24 11 -11 13 -10 8 4 -3
10 0 19 9 22 9 4 12 11 8 18 -6 10 -4 10 7 2 8 -6 27 -10 42 -9 32 2 45 -11
28 -28 -9 -9 -11 -7 -6 8 5 15 5 17 -3 6 -9 -12 -13 -12 -26 -2 -13 11 -16 11
-16 0 0 -12 -2 -12 -9 -1 -7 11 -9 10 -14 -3 -4 -9 -3 -14 2 -10 5 3 12 -1 14
-7 4 -10 6 -10 6 0 1 6 6 12 12 12 5 0 8 -4 5 -9 -3 -4 5 -7 17 -7 12 1 33 -7
47 -18 l25 -21 -25 29 -25 28 25 -7 c24 -7 25 -7 5 9 -14 11 -15 15 -5 14 8
-2 18 -7 23 -13 4 -6 10 -5 16 3 6 11 10 10 15 -3 8 -22 8 -25 -5 -25 -5 0 -7
6 -3 12 5 9 2 9 -9 -1 -9 -7 -17 -16 -17 -19 0 -3 3 -2 7 1 3 4 12 -1 20 -11
8 -9 12 -12 9 -5 -4 6 -2 15 4 18 6 4 8 16 5 28 -2 12 -2 16 1 9 4 -9 9 -10
19 -2 10 8 15 8 20 -1 6 -8 9 -8 15 1 5 8 9 7 13 -5 4 -9 3 -14 -2 -11 -5 3
-12 -1 -15 -10 -3 -9 -2 -12 5 -9 5 4 17 1 26 -7 14 -11 16 -11 8 2 -5 8 -11
23 -12 33 -4 22 26 20 44 -3 16 -19 16 -33 1 -24 -7 5 -8 3 -3 -6 6 -10 10
-10 19 2 6 8 17 14 24 12 7 -1 8 0 2 3 -5 2 -8 9 -4 14 3 5 12 5 23 0 20 -11
50 2 32 13 -6 4 -11 1 -11 -6 0 -8 -3 -9 -8 -3 -8 11 -54 16 -47 5 2 -4 -2 -7
-9 -7 -7 0 -13 6 -13 12 0 6 12 11 26 10 14 -1 29 3 33 9 5 7 8 6 8 -3 0 -10
3 -11 14 -2 14 12 32 17 91 28 17 2 36 10 43 15 8 7 12 7 12 0 0 -12 -33 -25
-68 -27 -13 -1 -28 -7 -34 -13 -6 -6 -18 -8 -27 -4 -14 5 -14 4 1 -12 17 -16
44 -14 33 4 -3 4 2 10 10 14 8 3 17 1 20 -4 4 -6 1 -10 -6 -10 -7 0 -10 -3 -6
-6 3 -3 12 -2 19 2 7 5 19 9 25 9 7 0 12 4 12 9 -1 10 21 26 35 26 5 0 2 -8
-5 -17 -13 -16 -12 -17 4 -4 10 8 22 22 28 32 7 15 6 17 -6 13 -8 -3 -12 -11
-8 -17 3 -6 1 -7 -5 -3 -6 4 -9 13 -6 21 4 8 10 13 14 10 5 -3 11 -1 15 4 3 6
13 7 22 4 10 -4 14 -2 10 4 -3 5 -1 10 6 11 7 1 23 3 37 5 14 2 31 -1 38 -6 9
-7 11 -5 6 8 -6 14 -4 16 6 10 9 -5 11 -4 6 3 -5 9 -13 9 -26 2 -13 -7 -21 -7
-26 2 -4 6 -3 8 4 4 6 -3 17 0 25 8 11 11 17 12 26 3 6 -6 11 -8 11 -4 0 4 10
3 23 -3 20 -10 20 -10 5 3 -10 8 -14 18 -10 23 4 4 -1 2 -10 -5 -10 -7 -18 -9
-18 -3 0 14 28 23 36 11 10 -17 27 -5 31 22 2 18 1 20 -6 9 -5 -8 -7 -18 -5
-22 3 -4 1 -8 -4 -8 -6 0 -13 7 -16 16 -3 8 -2 13 3 10 5 -3 12 1 15 10 4 9
10 14 13 10 4 -4 13 4 21 16 8 14 11 16 8 5 -4 -12 -2 -16 5 -11 7 4 10 1 7
-7 -3 -8 -10 -13 -15 -12 -5 1 -10 -7 -10 -18 -1 -10 3 -19 9 -19 6 0 8 3 5 7
-4 3 -2 12 4 20 10 11 15 11 28 1 14 -12 15 -11 1 6 -12 15 -12 20 -2 23 6 3
10 9 6 14 -5 8 9 13 29 10 4 0 6 5 5 11 -2 7 2 12 8 11 12 -2 12 33 -1 44 -4
5 -5 2 0 -6 6 -10 4 -12 -4 -7 -8 5 -11 3 -9 -5 1 -8 -10 -26 -25 -41 -18 -18
-27 -22 -27 -13 0 8 5 15 11 15 5 0 7 5 3 12 -4 7 -3 8 4 4 7 -4 12 -3 12 2 0
5 10 22 22 37 18 24 23 25 33 12 9 -12 14 -13 28 -2 15 11 16 14 2 25 -13 11
-14 10 -9 -4 3 -9 1 -16 -5 -16 -14 0 -14 27 -1 35 6 4 18 1 26 -6 12 -9 17
-10 27 0 9 10 8 11 -8 5 -16 -6 -18 -5 -7 7 14 16 16 39 2 39 -5 0 -7 -6 -4
-14 6 -17 -12 -31 -21 -16 -3 5 -1 10 5 10 6 0 9 4 6 9 -8 12 15 29 35 26 18
-3 19 10 5 34 -7 11 -5 13 8 8 10 -4 19 -7 22 -7 2 0 1 -8 -3 -17 -3 -10 -3
-15 1 -11 4 3 8 13 10 21 1 8 8 23 16 33 13 17 13 17 -8 0 -13 -11 -26 -16
-30 -10 -9 10 32 97 41 87 3 -3 6 3 6 13 -1 25 6 52 13 60 4 3 4 12 1 20 -3 8
0 14 5 14 6 0 9 -9 7 -20 -2 -11 1 -23 7 -26 7 -4 8 -2 4 5 -4 6 -1 14 8 17
12 5 12 8 -4 24 -17 17 -17 20 0 83 12 48 14 69 6 78 -8 8 -4 8 13 -1 23 -12
23 -12 7 11 -17 25 -21 43 -8 35 5 -3 9 1 9 9 0 8 -3 12 -7 10 -3 -2 -6 20 -6
50 1 29 4 51 8 49 5 -3 8 0 8 5 0 6 -4 11 -10 11 -5 0 -10 16 -10 36 0 21 4
33 10 29 6 -4 8 -10 6 -14 -3 -4 1 -8 9 -8 11 0 12 4 4 14 -9 10 -8 17 2 30
13 15 12 15 -8 2 -28 -17 -30 -14 -34 36 -1 22 -7 46 -12 53 -12 15 4 17 19 2
7 -7 11 -6 11 4 0 8 -5 12 -10 9 -7 -4 -8 1 -3 12 5 15 4 16 -8 6 -12 -10 -16
-6 -22 21 -4 18 -7 36 -6 41 1 4 -2 7 -6 7 -10 0 -37 71 -33 89 1 8 -2 10 -10
5 -9 -5 -10 -2 -6 10 4 10 3 15 -3 11 -9 -6 -35 41 -32 58 1 4 -3 7 -9 7 -8 0
-8 4 0 14 10 12 8 13 -8 9 -12 -3 -21 -1 -21 5 0 5 -28 40 -62 77 -35 38 -62
75 -60 84 2 14 2 14 -7 1 -9 -13 -13 -13 -28 3 -17 17 -17 18 2 11 11 -4 17
-4 14 0 -4 4 -16 8 -28 11 -36 7 -43 15 -29 33 11 15 11 15 -3 4 -13 -10 -21
-10 -43 1 -14 8 -23 17 -19 20 3 4 -3 7 -15 7 -12 0 -22 5 -22 11 0 5 -4 7
-10 4 -5 -3 -10 2 -10 12 0 15 -2 16 -10 3 -8 -12 -10 -12 -10 -1 0 8 -3 12
-6 8 -9 -9 -65 14 -58 24 3 5 -2 6 -11 3 -8 -4 -21 -1 -29 5 -7 6 -16 8 -19 5
-3 -3 -11 -2 -19 2 -7 4 -24 9 -38 10 -63 6 -130 17 -125 22 7 7 -15 32 -29
32 -6 0 -3 -5 7 -11z m727 -1433 c0 -3 -4 -8 -10 -11 -5 -3 -10 -1 -10 4 0 6
5 11 10 11 6 0 10 -2 10 -4z m-1063 -411 c0 -8 -4 -12 -9 -9 -4 3 -8 9 -8 15
0 5 4 9 8 9 5 0 9 -7 9 -15z"/>
<path d="M1570 2381 c0 -6 4 -13 10 -16 6 -3 7 1 4 9 -7 18 -14 21 -14 7z"/>
<path d="M1650 2360 c0 -5 5 -10 11 -10 5 0 7 5 4 10 -3 6 -8 10 -11 10 -2 0
-4 -4 -4 -10z"/>
<path d="M2090 2116 c0 -2 8 -10 18 -17 15 -13 16 -12 3 4 -13 16 -21 21 -21
13z"/>
<path d="M669 2023 c-13 -16 -12 -17 4 -4 9 7 17 15 17 17 0 8 -8 3 -21 -13z"/>
<path d="M2227 1935 c3 -8 9 -12 14 -9 12 7 11 11 -5 17 -10 4 -13 1 -9 -8z"/>
<path d="M595 1909 c-4 -6 -5 -12 -2 -15 2 -3 7 2 10 11 7 17 1 20 -8 4z"/>
<path d="M575 1871 c-3 -5 -2 -12 3 -15 5 -3 9 1 9 9 0 17 -3 19 -12 6z"/>
<path d="M2296 1813 c-6 -14 -5 -15 5 -6 7 7 10 15 7 18 -3 3 -9 -2 -12 -12z"/>
<path d="M516 1713 c-6 -14 -5 -15 5 -6 7 7 10 15 7 18 -3 3 -9 -2 -12 -12z"/>
<path d="M2354 1642 c3 -5 0 -12 -6 -15 -7 -2 -10 -7 -7 -11 3 -4 12 0 18 8 9
11 9 16 0 22 -7 4 -9 3 -5 -4z"/>
<path d="M511 1614 c0 -11 3 -14 6 -6 3 7 2 16 -1 19 -3 4 -6 -2 -5 -13z"/>
<path d="M479 1513 c-12 -16 -12 -17 2 -6 9 7 20 9 24 5 5 -4 5 -1 1 6 -9 16
-11 15 -27 -5z"/>
<path d="M2375 1491 c-3 -5 -2 -12 3 -15 5 -3 9 1 9 9 0 17 -3 19 -12 6z"/>
<path d="M475 1460 c3 -5 8 -10 11 -10 2 0 4 5 4 10 0 6 -5 10 -11 10 -5 0 -7
-4 -4 -10z"/>
<path d="M2370 1379 c0 -5 5 -7 10 -4 6 3 10 8 10 11 0 2 -4 4 -10 4 -5 0 -10
-5 -10 -11z"/>
<path d="M475 1360 c-3 -5 -1 -10 4 -10 6 0 11 5 11 10 0 6 -2 10 -4 10 -3 0
-8 -4 -11 -10z"/>
<path d="M2370 1351 c0 -6 4 -13 10 -16 6 -3 7 1 4 9 -7 18 -14 21 -14 7z"/>
<path d="M475 1320 c3 -5 8 -10 11 -10 2 0 4 5 4 10 0 6 -5 10 -11 10 -5 0 -7
-4 -4 -10z"/>
<path d="M495 1281 c-6 -11 13 -26 22 -17 4 3 1 6 -6 6 -7 0 -9 5 -6 10 3 6 4
10 1 10 -3 0 -7 -4 -11 -9z"/>
<path d="M2353 1273 c-15 -5 -17 -23 -4 -23 5 0 11 7 15 15 3 8 4 15 3 14 -1
0 -8 -3 -14 -6z"/>
<path d="M490 1239 c0 -5 5 -7 10 -4 6 3 10 8 10 11 0 2 -4 4 -10 4 -5 0 -10
-5 -10 -11z"/>
<path d="M510 1220 c0 -5 5 -10 11 -10 5 0 7 5 4 10 -3 6 -8 10 -11 10 -2 0
-4 -4 -4 -10z"/>
<path d="M2327 1211 c-4 -17 -3 -21 5 -13 5 5 8 16 6 23 -3 8 -7 3 -11 -10z"/>
<path d="M2340 1179 c0 -5 5 -7 10 -4 6 3 10 8 10 11 0 2 -4 4 -10 4 -5 0 -10
-5 -10 -11z"/>
<path d="M535 1120 c3 -5 11 -10 16 -10 6 0 7 5 4 10 -3 6 -11 10 -16 10 -6 0
-7 -4 -4 -10z"/>
<path d="M2299 1093 c-13 -16 -12 -17 4 -4 16 13 21 21 13 21 -2 0 -10 -8 -17
-17z"/>
<path d="M547 1089 c7 -7 15 -10 18 -7 3 3 -2 9 -12 12 -14 6 -15 5 -6 -5z"/>
<path d="M2306 1063 c-6 -14 -5 -15 5 -6 7 7 10 15 7 18 -3 3 -9 -2 -12 -12z"/>
<path d="M562 1057 c-8 -10 -6 -13 7 -13 11 0 17 6 14 13 -3 7 -6 13 -8 13 -1
0 -7 -6 -13 -13z"/>
<path d="M2277 1044 c-3 -5 1 -15 9 -22 16 -14 18 -5 5 17 -5 7 -11 9 -14 5z"/>
<path d="M566 1015 c4 -8 8 -15 10 -15 2 0 4 7 4 15 0 8 -4 15 -10 15 -5 0 -7
-7 -4 -15z"/>
<path d="M2254 998 l-19 -23 23 19 c21 18 27 26 19 26 -2 0 -12 -10 -23 -22z"/>
<path d="M670 860 c-13 -9 -13 -10 0 -11 8 -1 19 -1 24 0 5 1 6 -5 3 -13 -4
-10 -1 -13 7 -10 8 3 13 -2 13 -13 0 -34 3 -43 14 -43 5 0 8 4 5 9 -4 5 0 12
6 14 10 4 10 6 0 6 -7 1 -11 5 -8 9 3 5 -7 21 -22 35 -20 19 -31 24 -42 17z"/>
<path d="M740 759 c-12 -8 -10 -9 8 -4 25 7 27 3 11 -28 -9 -20 -9 -20 4 -5 8
10 17 14 21 10 4 -4 6 0 4 8 -3 14 -17 30 -28 30 -3 0 -12 -5 -20 -11z"/>
<path d="M796 725 c-20 -15 -12 -20 22 -16 11 2 17 -17 13 -44 -1 -5 5 -2 12
7 8 10 17 15 20 11 4 -3 2 -12 -4 -19 -8 -10 -6 -12 10 -9 20 4 29 -9 14 -18
-5 -2 -2 -2 4 -1 7 2 17 -5 22 -14 6 -10 11 -12 11 -5 0 18 -67 91 -91 98 -11
4 -17 11 -14 16 8 12 3 11 -19 -6z"/>
<path d="M1956 613 c-6 -14 -5 -15 5 -6 7 7 10 15 7 18 -3 3 -9 -2 -12 -12z"/>
<path d="M1854 589 c-3 -6 -13 -8 -23 -5 -12 5 -11 2 3 -9 11 -8 25 -15 30
-14 6 0 5 3 -2 6 -6 2 -10 9 -7 13 3 5 12 7 20 3 8 -3 15 -3 15 0 0 11 -30 16
-36 6z"/>
<path d="M1900 596 c0 -2 7 -7 16 -10 8 -3 12 -2 9 4 -6 10 -25 14 -25 6z"/>
<path d="M1051 551 c-8 -5 -9 -11 -3 -15 5 -3 12 1 16 9 6 17 6 18 -13 6z"/>
<path d="M1439 498 c-4 -19 -9 -51 -6 -47 1 2 8 11 15 21 9 11 10 18 2 23 -5
3 -10 5 -11 3z"/>
<path d="M1507 485 c3 -8 9 -12 14 -9 12 7 11 11 -5 17 -10 4 -13 1 -9 -8z"/>
</g>
</svg>
